<mxfile host="app.diagrams.net" agent="Mozilla/5.0 (Windows NT 10.0; Win64; x64) AppleWebKit/537.36 (KHTML, like Gecko) Chrome/133.0.0.0 Safari/537.36 OPR/118.0.0.0" version="27.0.5">
  <diagram name="Сторінка-1" id="XNBcjusaTvVT2TG90bTc">
    <mxGraphModel dx="1382" dy="758" grid="1" gridSize="10" guides="1" tooltips="1" connect="1" arrows="1" fold="1" page="1" pageScale="1" pageWidth="827" pageHeight="1169" background="light-dark(#FFFFFF,#FFFFFF)" math="0" shadow="0">
      <root>
        <mxCell id="0" />
        <mxCell id="1" parent="0" />
        <mxCell id="-TQID7fg_okUlGpin9FL-7" value="" style="ellipse;html=1;shape=startState;fillColor=#000000;strokeColor=#ff0000;" vertex="1" parent="1">
          <mxGeometry x="390" y="70" width="30" height="30" as="geometry" />
        </mxCell>
        <mxCell id="-TQID7fg_okUlGpin9FL-8" value="" style="edgeStyle=orthogonalEdgeStyle;html=1;verticalAlign=bottom;endArrow=open;endSize=8;strokeColor=#ff0000;rounded=0;" edge="1" source="-TQID7fg_okUlGpin9FL-7" parent="1">
          <mxGeometry relative="1" as="geometry">
            <mxPoint x="405" y="160" as="targetPoint" />
          </mxGeometry>
        </mxCell>
        <mxCell id="-TQID7fg_okUlGpin9FL-10" style="edgeStyle=orthogonalEdgeStyle;rounded=0;orthogonalLoop=1;jettySize=auto;html=1;exitX=0.5;exitY=1;exitDx=0;exitDy=0;strokeColor=light-dark(#000000,#000000);" edge="1" parent="1" source="-TQID7fg_okUlGpin9FL-9">
          <mxGeometry relative="1" as="geometry">
            <mxPoint x="405" y="270" as="targetPoint" />
          </mxGeometry>
        </mxCell>
        <mxCell id="-TQID7fg_okUlGpin9FL-17" style="edgeStyle=orthogonalEdgeStyle;rounded=0;orthogonalLoop=1;jettySize=auto;html=1;exitX=1;exitY=0.5;exitDx=0;exitDy=0;entryX=1;entryY=0.5;entryDx=0;entryDy=0;strokeColor=light-dark(#000000,#000000);" edge="1" parent="1" source="-TQID7fg_okUlGpin9FL-9" target="-TQID7fg_okUlGpin9FL-16">
          <mxGeometry relative="1" as="geometry">
            <mxPoint x="570" y="460" as="targetPoint" />
            <Array as="points">
              <mxPoint x="540" y="190" />
              <mxPoint x="540" y="465" />
            </Array>
          </mxGeometry>
        </mxCell>
        <mxCell id="-TQID7fg_okUlGpin9FL-9" value="" style="rounded=1;whiteSpace=wrap;html=1;fillColor=light-dark(#FFFFFF,#FFFFFF);strokeColor=light-dark(#000000,#000000);" vertex="1" parent="1">
          <mxGeometry x="345" y="160" width="120" height="60" as="geometry" />
        </mxCell>
        <mxCell id="-TQID7fg_okUlGpin9FL-15" style="edgeStyle=orthogonalEdgeStyle;rounded=0;orthogonalLoop=1;jettySize=auto;html=1;exitX=0.5;exitY=1;exitDx=0;exitDy=0;strokeColor=light-dark(#000000,#030303);" edge="1" parent="1" source="-TQID7fg_okUlGpin9FL-11">
          <mxGeometry relative="1" as="geometry">
            <mxPoint x="405" y="440" as="targetPoint" />
          </mxGeometry>
        </mxCell>
        <mxCell id="-TQID7fg_okUlGpin9FL-18" style="edgeStyle=orthogonalEdgeStyle;rounded=0;orthogonalLoop=1;jettySize=auto;html=1;exitX=0;exitY=0.5;exitDx=0;exitDy=0;entryX=0;entryY=0.5;entryDx=0;entryDy=0;strokeColor=light-dark(#000000,#000000);" edge="1" parent="1" source="-TQID7fg_okUlGpin9FL-11" target="-TQID7fg_okUlGpin9FL-16">
          <mxGeometry relative="1" as="geometry">
            <Array as="points">
              <mxPoint x="280" y="320" />
              <mxPoint x="280" y="465" />
            </Array>
          </mxGeometry>
        </mxCell>
        <mxCell id="-TQID7fg_okUlGpin9FL-11" value="" style="rhombus;whiteSpace=wrap;html=1;strokeColor=light-dark(#000000,#000000);fillColor=light-dark(#FFFFFF,#FFFFFF);" vertex="1" parent="1">
          <mxGeometry x="352.5" y="270" width="105" height="100" as="geometry" />
        </mxCell>
        <mxCell id="-TQID7fg_okUlGpin9FL-16" value="" style="ellipse;html=1;shape=endState;fillColor=#000000;strokeColor=#ff0000;" vertex="1" parent="1">
          <mxGeometry x="390" y="450" width="30" height="30" as="geometry" />
        </mxCell>
        <mxCell id="-TQID7fg_okUlGpin9FL-19" value="Title" style="text;strokeColor=none;fillColor=none;html=1;fontSize=24;fontStyle=1;verticalAlign=middle;align=center;" vertex="1" parent="1">
          <mxGeometry x="355" y="170" width="100" height="40" as="geometry" />
        </mxCell>
        <mxCell id="-TQID7fg_okUlGpin9FL-20" value="&lt;font style=&quot;color: light-dark(rgb(0, 0, 0), rgb(0, 0, 0));&quot;&gt;Oczekuje&lt;br&gt;wprowadzenia&lt;/font&gt;" style="text;strokeColor=none;fillColor=none;html=1;fontSize=24;fontStyle=1;verticalAlign=middle;align=center;" vertex="1" parent="1">
          <mxGeometry x="355" y="170" width="100" height="40" as="geometry" />
        </mxCell>
        <mxCell id="-TQID7fg_okUlGpin9FL-21" value="&lt;font style=&quot;color: light-dark(rgb(0, 0, 0), rgb(0, 0, 0));&quot;&gt;Weryfakacja&lt;/font&gt;" style="text;strokeColor=none;fillColor=none;html=1;fontSize=24;fontStyle=1;verticalAlign=middle;align=center;" vertex="1" parent="1">
          <mxGeometry x="381.25" y="305" width="47.5" height="30" as="geometry" />
        </mxCell>
        <mxCell id="-TQID7fg_okUlGpin9FL-22" value="&lt;font style=&quot;color: light-dark(rgb(0, 0, 0), rgb(0, 0, 0));&quot;&gt;nipowodzenie&lt;/font&gt;" style="text;html=1;fontSize=24;fontStyle=1;verticalAlign=middle;align=center;" vertex="1" parent="1">
          <mxGeometry x="610" y="310" width="20" height="50" as="geometry" />
        </mxCell>
        <mxCell id="-TQID7fg_okUlGpin9FL-23" value="&lt;font style=&quot;color: light-dark(rgb(0, 0, 0), rgb(0, 0, 0));&quot;&gt;sukces&lt;/font&gt;" style="text;strokeColor=none;fillColor=none;html=1;fontSize=24;fontStyle=1;verticalAlign=middle;align=center;" vertex="1" parent="1">
          <mxGeometry x="180" y="360" width="100" height="40" as="geometry" />
        </mxCell>
      </root>
    </mxGraphModel>
  </diagram>
</mxfile>
